# File exported by Houdini 20.5.445 (www.sidefx.com)
# 90 points
# 348 vertices
# 114 primitives
# Bounds: [-0.462199807, -0.101422697, -1.10491681] to [0.464049995, 0.0885771513, -0.519916892]
g 
v 0.002799168 -0.0289211292 -0.519916892
v -0.0328245983 0.0232362691 -1.01991677
v 0.0028003531 0.032327529 -1.01991677
v -0.0849831775 0.00670254184 -1.01991689
v -0.0996995121 -0.0289224405 -1.01991689
v -0.0849831626 -0.0645474195 -1.01991677
v 0.00280042691 -0.100172304 -1.01991642
v 0.0905839726 -0.0645473003 -1.01991642
v 0.1053003 -0.0289223194 -1.0199163
v 0.0905839428 0.00670254184 -1.01991653
v 0.0384253003 0.0232362691 -1.01991665
v 0.140049696 -0.037422061 -0.694916844
v 0.126050293 -0.101422697 -1.04491651
v 0.0800502896 -0.0374226607 -1.02491689
v 0.136050299 0.0885771513 -1.05491698
v 0.224050298 -0.0374226607 -1.03891647
v -0.0719496235 -0.0374226607 -1.02491713
v -0.117949598 -0.101422697 -1.04491675
v -0.131948903 -0.037422061 -0.694916964
v -0.215949699 -0.0374226607 -1.03891659
v -0.127949595 0.0885771513 -1.05491722
v 0.186966494 -0.033505559 -0.93866688
v 0.180299893 -0.00142240501 -1.01783371
v 0.420299888 -0.0560052395 -0.961166024
v 0.186966807 -0.0476722717 -1.01450014
v 0.420299888 -0.0560052395 -0.994916141
v 0.195300102 -0.0335056782 -1.03158355
v 0.444050014 -0.0514223613 -0.974916816
v 0.464049995 -0.0414223708 -0.984916806
v 0.444050014 -0.0514223613 -0.994916737
v 0.410299987 -0.0560052395 -0.994916201
v 0.464049995 -0.0414223708 -0.974916816
v 0.420299888 -0.0560052395 -0.961166024
v -0.442199796 -0.0514223613 -0.994916558
v -0.462199688 -0.0414223708 -0.984916627
v -0.442199796 -0.0514223613 -0.974916637
v -0.408449799 -0.0560052395 -0.994916022
v -0.462199807 -0.0414223708 -0.974916637
v -0.408449709 -0.0560052395 -0.961165845
v -0.41095081 -0.0560047589 -0.959916055
v -0.1709508 -0.00142192806 -1.01658368
v -0.177617401 -0.0335049592 -0.937416911
v -0.185951099 -0.0335052013 -1.03033364
v -0.410950989 -0.0560047589 -0.993666232
v -0.177617699 -0.0476719104 -1.01325023
v -0.0659499913 0.00857770443 -1.01491678
v -0.0259499904 0.0385776795 -1.03491676
v -0.00594999595 0.0385776795 -0.964916646
v 0.0140500097 0.0385776795 -0.964916646
v 0.0340500101 0.0385776795 -1.03491676
v 0.0740500093 0.00857770443 -1.01491678
v -0.0159499906 0.0185776893 -0.944916666
v 0.0240500104 0.0185776893 -0.944916666
v 0.0140500097 0.0385776795 -0.964916646
v 0.0340500101 0.0385776795 -1.03491676
v -0.0259499904 0.0385776795 -1.03491676
v -0.0159499906 0.0785776377 -1.03491676
v 0.0240499992 0.0785776377 -1.03491676
v -0.00594999595 0.0385776795 -0.964916646
v -0.0459499992 0.0185776893 -1.01491678
v 0.00405000895 0.0785776377 -1.08491671
v -0.0159499906 0.0785776377 -1.03491676
v 0.0540500097 0.0185776893 -1.01491678
v 0.0240499992 0.0785776377 -1.03491676
v -0.0159499906 0.0285776891 -1.00491679
v 0.034049999 0.0285776891 -1.00491679
v 0.0540500097 0.0185776893 -1.01491678
v -0.0159499906 0.0785776377 -1.03491676
v 0.0240499992 0.0785776377 -1.03491676
v -0.0459499992 0.0185776893 -1.01491678
v 0.224050403 -0.0374226607 -1.03891647
v 0.136050299 0.0885771513 -1.05491698
v 0.134049997 -0.0214223899 -1.06491673
v 0.126050293 -0.101422697 -1.04491651
v 0.0800502598 -0.0374226607 -1.02491689
v -0.117949598 -0.101422697 -1.04491675
v -0.0719495937 -0.0374226607 -1.02491713
v -0.135949999 -0.0214222707 -1.06491673
v -0.215949699 -0.0374226607 -1.03891659
v -0.127949595 0.0885771513 -1.05491722
v 0.124049999 -0.0214223899 -1.10491681
v 0.0940500125 -0.0314223804 -1.02491689
v 0.126050293 -0.0814226866 -1.04491651
v 0.194050401 -0.0374226607 -1.03891647
v 0.136050299 0.038577199 -1.05491698
v -0.125949994 -0.0114224004 -1.10491681
v -0.125949994 -0.0814223289 -1.04491687
v -0.0819496214 -0.0374226607 -1.02491713
v -0.127949595 0.0485771894 -1.05491722
v -0.185949698 -0.0374226607 -1.03891659
vt -0.101192802 -0.0716620833 0
vt -0.102305502 -0.0681578219 0
vt -0.0536613092 -0.0549806096 0
vt -0.0988741815 -0.0782204792 0
vt -0.100567304 -0.0730173886 0
vt -0.0504184514 -0.0643663928 0
vt 0.189782903 -0.02167047 0
vt 0.186420605 -0.0235550795 0
vt 0.164952502 0.0227502193 0
vt 0.125083193 0.137026101 0
vt 0.124134101 0.133290306 0
vt 0.074796699 0.145762905 0
vt 0.0981091112 0.0483272895 0
vt 0.0951572433 0.0393252112 0
vt 0.0480688214 0.0575856492 0
vt 0.03607063 -0.0883956477 0
vt 0.0310313702 -0.0964179188 0
vt -0.00806170888 -0.063837558 0
vt -0.165649593 -0.0624412782 0
vt -0.169464797 -0.0618925393 0
vt -0.158346698 -0.0120784296 0
vt -0.172808096 0.080085583 0
vt -0.174735904 0.0834233314 0
vt -0.130697906 0.108926401 0
vt -0.1272057 0.0137957204 0
vt -0.128787994 0.0190335792 0
vt -0.0811017081 0.0353402793 0
vt -0.125982404 0.0102065504 0
vt -0.127035707 0.0137291104 0
vt -0.0783612803 0.0267027207 0
vt 0.155795604 0.0807629377 0
vt 0.156649396 0.0753583163 0
vt 0.154121101 0.0724488571 0
vt 0.150276601 0.0721719265 0
vt 0.143164396 0.0784303322 0
vt 0.142425001 0.0878751278 0
vt 0.152609199 0.0871357173 0
vt 0.152609706 0.0871355981 0
vt 0.155016005 0.084355779 0
vt 0.155796096 0.0807628185 0
vt 0.144953296 0.0907847136 0
vt 0.148797795 0.0910616368 0
vt 0.152609199 0.0871358365 0
vt 0.144953206 0.090784587 0
vt 0.152609199 0.0871357322 0
vt 0.116043501 0.105299599 0
vt 0.115846902 0.097170569 0
vt 0.0829605237 0.110823601 0
vt -0.162174195 0.0664551705 0
vt -0.169997796 0.0797800422 0
vt -0.132274702 0.0854271725 0
vt 0.00306009408 -0.124666497 0
vt -0.00493935309 -0.133232102 0
vt -0.0269396491 -0.105484903 0
vt 0.173583895 -0.101603799 0
vt 0.159638196 -0.0994507298 0
vt 0.160126403 -0.0659132674 0
vt 0.130282804 0.0565183498 0
vt 0.137067005 0.043739669 0
vt 0.126705199 0.0492162518 0
vt 0.174463093 0.0626508296 0
vt 0.188570201 0.0623193495 0
vt 0.180164695 0.0493537486 0
vt -0.0930351168 -0.0923595279 0
vt -0.0752767473 -0.123223104 0
vt -0.083313413 -0.124460801 0
vt 0.00440137601 -0.152565494 0
vt -0.0189175196 -0.182750702 0
vt -0.0267385598 -0.1694244 0
vt 0.0775592104 0.0894394964 0
vt 0.112811603 0.0860950872 0
vt 0.109982997 0.0747215003 0
vt -0.140143797 0.108387902 0
vt -0.168589994 0.0906168073 0
vt -0.177648395 0.101436503 0
vt 0.100513399 0.0947135836 0
vt 0.1010307 0.106422201 0
vt 0.108622096 0.0941059813 0
vt 0.155726194 0.106385201 0
vt 0.170894504 0.103439003 0
vt 0.161342993 0.0930520967 0
vt -0.143367901 -0.0404533185 0
vt -0.153918803 -0.0175059494 0
vt -0.1453664 -0.0169889908 0
vt 0.184898004 -0.00764875021 0
vt 0.181515306 -0.0303051807 0
vt 0.182647899 -0.00690239109 0
vt -0.0919504911 -0.0276950095 0
vt -0.101816699 -0.00503000384 0
vt -0.0887444094 -0.0266406294 0
vt 0.090348728 -0.038371589 0
vt 0.0807662234 -0.0597526394 0
vt 0.0775817931 -0.0586345717 0
vt 0.162414193 -0.0879121572 0
vt 0.1607088 -0.0862655118 0
vt 0.161678806 -0.0786122233 0
vt 0.0468618795 -0.043618869 0
vt 0.0536967516 -0.02108326 0
vt 0.0607836209 -0.0241312403 0
vt 0.0896168128 0.0512455404 0
vt 0.0776403919 0.0707730129 0
vt 0.0797702223 0.0739190876 0
vt 0.152899802 0.0937583968 0
vt 0.161447704 0.0931721926 0
vt 0.161140293 0.0893854275 0
vt 0.0334581807 -0.141434506 0
vt 0.0315246694 -0.142938301 0
vt 0.0316927992 -0.1404946 0
vt 0.0690348819 -0.0876498297 0
vt 0.0678065568 -0.0908266008 0
vt 0.0659411699 -0.0901053026 0
vt -0.053803049 -0.113165103 0
vt -0.0547223389 -0.113558702 0
vt -0.05783353 -0.108832397 0
vt -0.0599443391 -0.0953290835 0
vt -0.0615653507 -0.0968693122 0
vt -0.0593041293 -0.0926213712 0
vt 0.0507218391 -0.0404486395 0
vt 0.0484892093 -0.0394410193 0
vt 0.0465123989 -0.0366674103 0
vt 0.0736872628 -0.0953142717 0
vt 0.0732088834 -0.0925733373 0
vt 0.0767224431 -0.0927868187 0
vt -0.0746719837 -0.113725998 0
vt -0.0711600333 -0.1134874 0
vt -0.070909299 -0.118293203 0
vt 0.0315248407 -0.142938301 0
vt 0.03064215 -0.142468393 0
vt 0.0316929705 -0.1404946 0
vt 0.126182705 0.086098887 0
vt 0.127815604 0.0879246294 0
vt 0.128087804 0.0854903087 0
vt 0.112334698 0.0388889611 0
vt 0.114229597 0.0382493995 0
vt 0.113140397 0.0350222886 0
vt -0.118996099 0.0553263091 0
vt -0.119770803 0.0609313808 0
vt -0.118819997 0.0612412095 0
vt 0.0205663405 0.115649603 0
vt 0.0235962104 0.120520703 0
vt 0.0230549108 0.118351199 0
vt -0.0155723896 0.0693717226 0
vt -0.01702944 0.0724503025 0
vt -0.0168200396 0.0748908222 0
vt 0.113140397 0.0350222699 0
vt 0.1099426 0.0361015387 0
vt 0.112334602 0.0388889499 0
vt -0.1188199 0.0612411909 0
vt -0.115786999 0.0563719198 0
vt -0.118996002 0.0553262904 0
vt 0.126182705 0.0860988274 0
vt 0.126863196 0.0882288665 0
vt 0.127815694 0.0879245698 0
vt -0.145672902 -0.0150482999 0
vt -0.153996706 -0.0170797594 0
vt -0.150692105 0.00795991067 0
vt 0.181032196 0.0327716395 0
vt 0.178105399 0.0560183004 0
vt 0.1832183 0.0336886086 0
vt -0.0889874995 -0.0268604495 0
vt -0.0848243833 -0.0517717712 0
vt -0.0921066701 -0.0281494502 0
vt 0.101111703 0.00736049097 0
vt 0.104283303 0.00620646402 0
vt 0.0981400535 -0.0164040402 0
vt -0.133909896 0.127156004 0
vt -0.140700594 0.123495199 0
vt -0.142850801 0.124493301 0
vt 0.0634661615 -0.0181504004 0
vt 0.0564556606 -0.0149306497 0
vt 0.0686083734 0.00524064805 0
vt 0.0956357569 0.0485990494 0
vt 0.0918708295 0.0480897911 0
vt 0.0797029063 0.06749852 0
vt -0.167441294 -0.0685010925 0
vt -0.170548007 -0.0663141534 0
vt -0.165528595 -0.0593703091 0
vt -0.077478908 -0.125061005 0
vt -0.0847107396 -0.125898004 0
vt -0.0845039412 -0.120516904 0
vt -0.143350795 0.051665321 0
vt -0.146859095 0.0557508804 0
vt -0.140675098 0.0595925301 0
vt 0.0662661865 -0.0292006396 0
vt 0.0617095791 -0.0218360405 0
vt 0.0632718429 -0.0181537401 0
vt -0.0892636627 -0.0265705697 0
vt -0.0972012132 -0.0251579601 0
vt -0.0899363384 -0.0246870909 0
vt -0.186736003 0.0228835307 0
vt -0.189449593 0.0241627395 0
vt -0.189248607 0.0261526108 0
vt -0.186333999 0.0268632807 0
vt 0.196177602 0.0519616902 0
vt 0.194784001 0.0414232984 0
vt 0.191803098 0.0551022701 0
vt -0.0892636701 -0.0265705697 0
vt -0.0951832086 -0.0308084209 0
vt -0.0972012207 -0.0251579601 0
vt 0.196177602 0.0519617014 0
vt 0.197455198 0.0460992791 0
vt -0.169950396 0.0642549172 0
vt -0.167162195 0.0631476194 0
vt -0.172409102 0.0562577397 0
vt -0.151831999 -0.0930737108 0
vt -0.144872397 -0.0982276723 0
vt -0.147241294 -0.100068398 0
vt 0.0717341304 -0.0163125899 0
vt 0.0972012207 -0.0251579601 0
vt 0.0951832086 -0.0308084209 0
vt 0.0892636701 -0.0265705697 0
vt -0.168549299 -0.00544349896 0
vt -0.176534295 -0.00694062794 0
vt -0.176781803 -0.00294829998 0
vt 0.158313602 0.0881010816 0
vt 0.160102502 0.0845233724 0
vt 0.156972006 0.0818400905 0
vt 0.154288694 0.0872066468 0
vt 0.143616006 0.142309994 0
vt 0.136620194 0.144324601 0
vt 0.144490495 0.146339297 0
vt 0.0892636627 -0.0265705697 0
vt 0.0899363384 -0.0246870909 0
vt 0.0972012132 -0.0251579601 0
vt -0.176781803 -0.00294829207 0
vt -0.168673098 -0.00344732706 0
vt -0.168549299 -0.00544349197 0
vt -0.193217993 0.0728238001 0
vt -0.185257494 0.0744456872 0
vt -0.1906728 0.0695800334 0
vt 0.176497206 -0.0396132804 0
vt 0.178084493 -0.044759199 0
vt 0.169564798 -0.0386423506 0
vt -0.0917722136 0.165240794 0
vt -0.0863934532 0.164978296 0
vt -0.0837348402 0.158502802 0
vt 0.196900398 0.0166872498 0
vt 0.187965199 0.0111953197 0
vt 0.187423706 0.0211806502 0
vt -0.0955194682 -0.0298667792 0
vt -0.100900799 -0.0296649691 0
vt -0.0968648121 -0.0260998104 0
vt -0.189869598 0.0728727281 0
vt -0.188510105 0.0766345933 0
vt -0.181542397 0.0773063526 0
vt -0.181542307 0.0773063526 0
vt -0.184941202 0.0679016933 0
vt -0.0460442007 0.0290763304 0
vt -0.0462169684 0.0315197185 0
vt -0.0436253697 0.0357956514 0
vt -0.194342196 0.0507021807 0
vt -0.198815897 0.0569460914 0
vt -0.193152398 0.0555585511 0
vt 0.188510105 0.0766345486 0
vt 0.189869598 0.0728726834 0
vt 0.184941307 0.0679016635 0
vt -0.192821994 0.0744580179 0
vt -0.185893103 0.075452663 0
vt -0.1873409 0.0724687427 0
vt -0.043625351 0.0357956514 0
vt -0.0408609696 0.0376281887 0
vt -0.0460441895 0.0290763304 0
vt 0.181542397 0.0773063228 0
vt -0.193155795 0.0500636809 0
vt -0.193348601 0.0476218015 0
vt -0.198695794 0.0521392897 0
vt -0.1943423 0.0507021695 0
vt -0.199767694 0.0530609787 0
vt -0.198815897 0.0569460802 0
vt 0.123752899 0.107469 0
vt 0.133290097 0.113043897 0
vt 0.1274793 0.0987262875 0
vt 0.185673699 0.0320223793 0
vt 0.190211102 0.0268136002 0
vt 0.182209402 0.0246658493 0
vt -0.188570201 0.0623193085 0
vt -0.174463093 0.0626507923 0
vt -0.180164695 0.0493537001 0
vt 0.165314496 0.0807950273 0
vt 0.173174903 0.0834130272 0
vt 0.174912795 0.0740695596 0
vt -0.130282894 0.056518279 0
vt -0.126705304 0.049216181 0
vt -0.137067094 0.0437395982 0
vt 0.177587107 0.00728696492 0
vt 0.173291504 0.0126969898 0
vt 0.187398598 0.0123636601 0
vt 0.1148206 0.152826205 0
vt 0.117408402 0.145558193 0
vt 0.109323002 0.146421701 0
vt 0.160202205 0.0581004508 0
vt 0.150001898 0.053788431 0
vt 0.144973904 0.0607194193 0
vt -0.161342993 0.0930520967 0
vt -0.170894504 0.103439003 0
vt -0.155726194 0.106385201 0
vt 0.176044598 0.0770399868 0
vt 0.180885494 0.0699770525 0
vt 0.173694298 0.0655579716 0
vt -0.1010307 0.106422201 0
vt -0.100513503 0.0947135836 0
vt -0.108622096 0.0941059887 0
vt 0.0939837173 0.168073803 0
vt 0.0882093236 0.155198395 0
vt 0.0846840888 0.162060797 0
vt 0.182738394 0.0544492714 0
vt 0.184226096 0.0605342798 0
vt 0.191166699 0.0554521792 0
vt -0.127784893 0.0393933319 0
vt -0.123621099 0.0486119911 0
vt -0.120577499 0.0431368686 0
vt 0.159059897 -0.0682839006 0
vt 0.167322904 -0.0709973276 0
vt 0.161641806 -0.0764895976 0
vt -0.00991216302 0.147869706 0
vt -0.00300185406 0.151702002 0
vt -0.00208406802 0.142052293 0
vt -0.188334197 0.0438731387 0
vt -0.193749994 0.0519123785 0
vt -0.1851971 0.0534897409 0
vt 0.198443905 0.00978589244 0
vt 0.194149897 0.00102902204 0
vt 0.190128401 0.00808503665 0
vt 0.178409398 0.0751304105 0
vt 0.173764899 0.0797291622 0
vt 0.181971893 0.0839297473 0
vt 0.135186896 -0.0381855592 0
vt 0.145419806 -0.0405198708 0
vt 0.139990807 -0.0461381301 0
vt 0.185546696 0.0552035682 0
vt 0.187613204 0.0623763688 0
vt 0.194693401 0.0563604794 0
vt -0.0891704932 0.167358905 0
vt -0.0853053108 0.157915398 0
vt -0.0941573828 0.161344796 0
vt -0.167114899 0.0921241865 0
vt -0.173727602 0.0998954326 0
vt -0.163435295 0.101951703 0
vt -0.0893883929 0.104878597 0
vt -0.0887742937 0.0974393263 0
vt -0.0951769724 0.0961257294 0
vn -0.245545402 0.962192893 0.117865503
vn -0.245545402 0.962192893 0.117865503
vn -0.245545402 0.962192893 0.117865503
vn -0.299984902 0.946354628 0.120091997
vn -0.299984902 0.946354628 0.120091997
vn -0.299984902 0.946354628 0.120091997
vn -0.90809077 0.375123292 0.1861552
vn -0.90809077 0.375123292 0.1861552
vn -0.90809077 0.375123292 0.1861552
vn -0.908090472 -0.375122905 0.186157107
vn -0.908090472 -0.375122905 0.186157107
vn -0.908090472 -0.375122905 0.186157107
vn -0.372804314 -0.918629825 0.130906001
vn -0.372804314 -0.918629825 0.130906001
vn -0.372804314 -0.918629825 0.130906001
vn 0.37280491 -0.918629229 0.130907804
vn 0.37280491 -0.918629229 0.130907804
vn 0.37280491 -0.918629229 0.130907804
vn 0.908089519 -0.375123292 0.186161503
vn 0.908089519 -0.375123292 0.186161503
vn 0.908089519 -0.375123292 0.186161503
vn 0.908088684 0.375126094 0.186159596
vn 0.908088684 0.375126094 0.186159596
vn 0.908088684 0.375126094 0.186159596
vn 0.299984008 0.946354687 0.120093398
vn 0.299984008 0.946354687 0.120093398
vn 0.299984008 0.946354687 0.120093398
vn 0.245545 0.962192893 0.117866702
vn 0.245545 0.962192893 0.117866702
vn 0.245545 0.962192893 0.117866702
vn 2.56528506e-06 -2.45556294e-06 -1
vn 2.56528506e-06 -2.45556294e-06 -1
vn 2.56528506e-06 -2.45556294e-06 -1
vn 2.56528506e-06 -2.45556294e-06 -1
vn 2.56528506e-06 -2.45556294e-06 -1
vn 2.56528506e-06 -2.45556294e-06 -1
vn 2.56528506e-06 -2.45556294e-06 -1
vn 1.44857495e-06 -6.24343102e-06 -1
vn 1.44857495e-06 -6.24343102e-06 -1
vn 1.44857495e-06 -6.24343102e-06 -1
vn 3.58612306e-06 -3.034462e-06 -1
vn 3.58612306e-06 -3.034462e-06 -1
vn 3.58612306e-06 -3.034462e-06 -1
vn 2.60424508e-06 -2.32288903e-06 -1
vn 2.60424508e-06 -2.32288903e-06 -1
vn 2.60424508e-06 -2.32288903e-06 -1
vn -0.782166481 -0.606622994 0.142211795
vn -0.782166481 -0.606622994 0.142211795
vn -0.782166481 -0.606622994 0.142211795
vn 0.792631626 0.578163922 0.193550199
vn 0.792631626 0.578163922 0.193550199
vn 0.792631626 0.578163922 0.193550199
vn 0.536442578 -0.833708525 0.130994394
vn 0.536442578 -0.833708525 0.130994394
vn 0.536442578 -0.833708525 0.130994394
vn -0.887027621 0.432634085 0.161275297
vn -0.887027621 0.432634085 0.161275297
vn -0.887027621 0.432634085 0.161275297
vn -0.0940593481 0.234733 -0.967498481
vn -0.0940593481 0.234733 -0.967498481
vn -0.0940593481 0.234733 -0.967498481
vn -0.0949924216 -0.190424204 -0.977095187
vn -0.0949924216 -0.190424204 -0.977095187
vn -0.0949924216 -0.190424204 -0.977095187
vn 0.7821666 -0.606622875 0.142211601
vn 0.7821666 -0.606622875 0.142211601
vn 0.7821666 -0.606622875 0.142211601
vn -0.792631507 0.578163981 0.193550497
vn -0.792631507 0.578163981 0.193550497
vn -0.792631507 0.578163981 0.193550497
vn -0.536442578 -0.833708525 0.130994499
vn -0.536442578 -0.833708525 0.130994499
vn -0.536442578 -0.833708525 0.130994499
vn 0.8870278 0.432633907 0.161275104
vn 0.8870278 0.432633907 0.161275104
vn 0.8870278 0.432633907 0.161275104
vn 0.0940586776 0.234733 -0.9674986
vn 0.0940586776 0.234733 -0.9674986
vn 0.0940586776 0.234733 -0.9674986
vn 0.0949917063 -0.190424204 -0.977095306
vn 0.0949917063 -0.190424204 -0.977095306
vn 0.0949917063 -0.190424204 -0.977095306
vn 0.124092601 0.923216522 0.36369279
vn 0.124092601 0.923216522 0.36369279
vn 0.124092601 0.923216522 0.36369279
vn 0.0252481997 -0.775531888 -0.630803287
vn 0.0252481997 -0.775531888 -0.630803287
vn 0.0252481997 -0.775531888 -0.630803287
vn 0.221765205 0.9751001 2.3055909e-06
vn 0.221765205 0.9751001 2.3055909e-06
vn 0.221765205 0.9751001 2.3055909e-06
vn -0.03568957 -0.999362886 -1.90954893e-06
vn -0.03568957 -0.999362886 -1.90954893e-06
vn -0.03568957 -0.999362886 -1.90954893e-06
vn -0.898562074 0.431382507 -0.0805926025
vn -0.898562074 0.431382507 -0.0805926025
vn -0.898562074 0.431382507 -0.0805926025
vn -0.0768525526 -0.980086684 0.1830948
vn -0.0768525526 -0.980086684 0.1830948
vn -0.0768525526 -0.980086684 0.1830948
vn 0.187434807 0.459668189 -0.86808598
vn 0.187434807 0.459668189 -0.86808598
vn 0.187434807 0.459668189 -0.86808598
vn -0.91586262 -0.392998993 -0.0821425319
vn -0.91586262 -0.392998993 -0.0821425319
vn -0.91586262 -0.392998993 -0.0821425319
vn 0.447213411 -0.894427299 8.45201782e-07
vn 0.447213411 -0.894427299 8.45201782e-07
vn 0.447213411 -0.894427299 8.45201782e-07
vn 0.134554297 -0.990906179 3.59281387e-07
vn 0.134554297 -0.990906179 3.59281387e-07
vn 0.134554297 -0.990906179 3.59281387e-07
vn -0.261843413 0.965110421 -2.44057787e-07
vn -0.261843413 0.965110421 -2.44057787e-07
vn -0.261843413 0.965110421 -2.44057787e-07
vn 0.404063702 -0.808128476 0.428556591
vn 0.404063702 -0.808128476 0.428556591
vn 0.404063702 -0.808128476 0.428556591
vn -0.109112397 0.803475201 -0.585253894
vn -0.109112397 0.803475201 -0.585253894
vn -0.109112397 0.803475201 -0.585253894
vn 0.162330002 -0.985563576 -0.0480968095
vn 0.162330002 -0.985563576 -0.0480968095
vn 0.162330002 -0.985563576 -0.0480968095
vn -0.290584505 0.952967882 0.0860974416
vn -0.290584505 0.952967882 0.0860974416
vn -0.290584505 0.952967882 0.0860974416
vn 0.447213113 -0.894427419 3.24578309e-07
vn 0.447213113 -0.894427419 3.24578309e-07
vn 0.447213113 -0.894427419 3.24578309e-07
vn -0.447213203 -0.894427419 4.11566106e-07
vn -0.447213203 -0.894427419 4.11566106e-07
vn -0.447213203 -0.894427419 4.11566106e-07
vn -0.134554103 -0.990906179 5.53310286e-09
vn -0.134554103 -0.990906179 5.53310286e-09
vn -0.134554103 -0.990906179 5.53310286e-09
vn 0.261843294 0.965110421 2.43079711e-07
vn 0.261843294 0.965110421 2.43079711e-07
vn 0.261843294 0.965110421 2.43079711e-07
vn -0.349291593 -0.698584497 0.624479771
vn -0.349291593 -0.698584497 0.624479771
vn -0.349291593 -0.698584497 0.624479771
vn 0.109112501 0.80347538 -0.585253477
vn 0.109112501 0.80347538 -0.585253477
vn 0.109112501 0.80347538 -0.585253477
vn -0.134553999 -0.990906298 2.42682091e-07
vn -0.134553999 -0.990906298 2.42682091e-07
vn -0.134553999 -0.990906298 2.42682091e-07
vn 0.261842996 0.965110481 -7.10472875e-07
vn 0.261842996 0.965110481 -7.10472875e-07
vn 0.261842996 0.965110481 -7.10472875e-07
vn -0.447212905 -0.894427478 -2.54840586e-07
vn -0.447212905 -0.894427478 -2.54840586e-07
vn -0.447212905 -0.894427478 -2.54840586e-07
vn -0.1240924 0.923216581 0.363692701
vn -0.1240924 0.923216581 0.363692701
vn -0.1240924 0.923216581 0.363692701
vn -0.0252484009 -0.775531471 -0.630803883
vn -0.0252484009 -0.775531471 -0.630803883
vn -0.0252484009 -0.775531471 -0.630803883
vn -0.221765101 0.975100219 2.23312895e-06
vn -0.221765101 0.975100219 2.23312895e-06
vn -0.221765101 0.975100219 2.23312895e-06
vn 0.035689339 -0.999362886 -1.85038596e-06
vn 0.035689339 -0.999362886 -1.85038596e-06
vn 0.035689339 -0.999362886 -1.85038596e-06
vn 0.898562372 0.43138209 -0.0805926174
vn 0.898562372 0.43138209 -0.0805926174
vn 0.898562372 0.43138209 -0.0805926174
vn 0.0768523514 -0.980086684 0.183094993
vn 0.0768523514 -0.980086684 0.183094993
vn 0.0768523514 -0.980086684 0.183094993
vn -0.187434807 0.459669292 -0.868085504
vn -0.187434807 0.459669292 -0.868085504
vn -0.187434807 0.459669292 -0.868085504
vn 0.915862679 -0.392998993 -0.082142517
vn 0.915862679 -0.392998993 -0.082142517
vn 0.915862679 -0.392998993 -0.082142517
vn -0.542036712 0.825961471 0.154867306
vn -0.542036712 0.825961471 0.154867306
vn -0.542036712 0.825961471 0.154867306
vn 0.542036712 0.825961471 0.154867396
vn 0.542036712 0.825961471 0.154867396
vn 0.542036712 0.825961471 0.154867396
vn 3.41651901e-10 -0.989949524 0.141421095
vn 3.41651901e-10 -0.989949524 0.141421095
vn 3.41651901e-10 -0.989949524 0.141421095
vn 0 1 -2.10878603e-08
vn 0 1 -2.10878603e-08
vn 0 1 -2.10878603e-08
vn -2.26093508e-08 0.707106829 0.707106829
vn -2.26093508e-08 0.707106829 0.707106829
vn -2.26093508e-08 0.707106829 0.707106829
vn -2.26093508e-08 0.707106829 0.707106829
vn -5.09282883e-09 -0.554701328 -0.832049489
vn -5.09282883e-09 -0.554701328 -0.832049489
vn -5.09282883e-09 -0.554701328 -0.832049489
vn 0 1 -1.86263405e-09
vn 0 1 -1.86263405e-09
vn 0 1 -1.86263405e-09
vn -1.18832704e-08 -0.554701328 -0.832049608
vn -1.18832704e-08 -0.554701328 -0.832049608
vn -1.18832704e-08 -0.554701328 -0.832049608
vn 0.639488578 0.67945677 0.359712094
vn 0.639488578 0.67945677 0.359712094
vn 0.639488578 0.67945677 0.359712094
vn -0.639488697 0.679456711 0.359712094
vn -0.639488697 0.679456711 0.359712094
vn -0.639488697 0.679456711 0.359712094
vn -9.7614819e-11 -0.989949524 0.141421095
vn -9.7614819e-11 -0.989949524 0.141421095
vn -9.7614819e-11 -0.989949524 0.141421095
vn 0 -1 -9.66801661e-09
vn 0 -1 -9.66801661e-09
vn 0 -1 -9.66801661e-09
vn 2.29142996e-10 0.868243694 0.496137887
vn 2.29142996e-10 0.868243694 0.496137887
vn 2.29142996e-10 0.868243694 0.496137887
vn 1.21076598e-08 0 -1
vn 1.21076598e-08 0 -1
vn 1.21076598e-08 0 -1
vn 1.21076598e-08 0 -1
vn -0.934892774 0.233723596 0.267111689
vn -0.934892774 0.233723596 0.267111689
vn -0.934892774 0.233723596 0.267111689
vn -0 -1 2.90040507e-08
vn -0 -1 2.90040507e-08
vn -0 -1 2.90040507e-08
vn -4.58285798e-10 0.868243694 0.496138006
vn -4.58285798e-10 0.868243694 0.496138006
vn -4.58285798e-10 0.868243694 0.496138006
vn 0.934892774 0.233723506 0.267111897
vn 0.934892774 0.233723506 0.267111897
vn 0.934892774 0.233723506 0.267111897
vn -0.8789379 0.322277606 -0.351575404
vn -0.8789379 0.322277606 -0.351575404
vn -0.8789379 0.322277606 -0.351575404
vn 0.8789379 0.322277814 -0.351575285
vn 0.8789379 0.322277814 -0.351575285
vn 0.8789379 0.322277814 -0.351575285
vn -8.56292903e-09 -0.759256601 -0.650791526
vn -8.56292903e-09 -0.759256601 -0.650791526
vn -8.56292903e-09 -0.759256601 -0.650791526
vn -5.58793488e-07 1 -1.68569798e-07
vn -5.58793488e-07 1 -1.68569798e-07
vn -5.58793488e-07 1 -1.68569798e-07
vn -9.60757575e-07 0.316228211 0.948683202
vn -9.60757575e-07 0.316228211 0.948683202
vn -9.60757575e-07 0.316228211 0.948683202
vn 4.82527618e-09 0.316227287 0.9486835
vn 4.82527618e-09 0.316227287 0.9486835
vn 4.82527618e-09 0.316227287 0.9486835
vn 1.41009302e-08 -0.707106829 0.707106888
vn 1.41009302e-08 -0.707106829 0.707106888
vn 1.41009302e-08 -0.707106829 0.707106888
vn 9.79171322e-09 0.51449579 0.857492924
vn 9.79171322e-09 0.51449579 0.857492924
vn 9.79171322e-09 0.51449579 0.857492924
vn -2.32949993e-09 -0.316227794 -0.948683321
vn -2.32949993e-09 -0.316227794 -0.948683321
vn -2.32949993e-09 -0.316227794 -0.948683321
vn -0.415899903 0.467887908 0.779812872
vn -0.415899903 0.467887908 0.779812872
vn -0.415899903 0.467887908 0.779812872
vn 3.00339709e-09 -0.707106829 0.707106829
vn 3.00339709e-09 -0.707106829 0.707106829
vn 3.00339709e-09 -0.707106829 0.707106829
vn -6.13558981e-09 -0.316227794 -0.948683321
vn -6.13558981e-09 -0.316227794 -0.948683321
vn -6.13558981e-09 -0.316227794 -0.948683321
vn 0.574365973 0.502570987 0.646162689
vn 0.574365973 0.502570987 0.646162689
vn 0.574365973 0.502570987 0.646162689
vn 9.7917372e-09 0.51449579 0.857492924
vn 9.7917372e-09 0.51449579 0.857492924
vn 9.7917372e-09 0.51449579 0.857492924
vn 0.28995201 0.0814140737 -0.953571975
vn 0.28995201 0.0814140737 -0.953571975
vn 0.28995201 0.0814140737 -0.953571975
vn -0.560042799 -0.147793099 -0.815174282
vn -0.560042799 -0.147793099 -0.815174282
vn -0.560042799 -0.147793099 -0.815174282
vn 0.0949929133 0.1904241 0.977095187
vn 0.0949929133 0.1904241 0.977095187
vn 0.0949929133 0.1904241 0.977095187
vn 0.225661904 -0.257459491 -0.939569771
vn 0.225661904 -0.257459491 -0.939569771
vn 0.225661904 -0.257459491 -0.939569771
vn 0.0940599293 -0.234732807 0.967498481
vn 0.0940599293 -0.234732807 0.967498481
vn 0.0940599293 -0.234732807 0.967498481
vn -0.608908713 0.0827898905 -0.788908124
vn -0.608908713 0.0827898905 -0.788908124
vn -0.608908713 0.0827898905 -0.788908124
vn 0.509459019 -0.0990620926 -0.854773819
vn 0.509459019 -0.0990620926 -0.854773819
vn 0.509459019 -0.0990620926 -0.854773819
vn -0.326914608 0.109112799 -0.938733876
vn -0.326914608 0.109112799 -0.938733876
vn -0.326914608 0.109112799 -0.938733876
vn -0.0949917063 0.190424204 0.977095306
vn -0.0949917063 0.190424204 0.977095306
vn -0.0949917063 0.190424204 0.977095306
vn -0.243826598 -0.286494613 -0.926536322
vn -0.243826598 -0.286494613 -0.926536322
vn -0.243826598 -0.286494613 -0.926536322
vn -0.0940587074 -0.234732807 0.967498481
vn -0.0940587074 -0.234732807 0.967498481
vn -0.0940587074 -0.234732807 0.967498481
vn 0.536366522 0.0376355201 -0.843145728
vn 0.536366522 0.0376355201 -0.843145728
vn 0.536366522 0.0376355201 -0.843145728
vn -0.843480289 -0.393629402 -0.365509093
vn -0.843480289 -0.393629402 -0.365509093
vn -0.843480289 -0.393629402 -0.365509093
vn 0.114046 -0.305177599 0.945441782
vn 0.114046 -0.305177599 0.945441782
vn 0.114046 -0.305177599 0.945441782
vn -0.871737003 0.404623091 -0.276323706
vn -0.871737003 0.404623091 -0.276323706
vn -0.871737003 0.404623091 -0.276323706
vn 0.678062677 0.38575241 -0.625640512
vn 0.678062677 0.38575241 -0.625640512
vn 0.678062677 0.38575241 -0.625640512
vn 0.150058806 0.312030286 0.938146889
vn 0.150058806 0.312030286 0.938146889
vn 0.150058806 0.312030286 0.938146889
vn 0.457917213 -0.620934784 -0.636201084
vn 0.457917213 -0.620934784 -0.636201084
vn 0.457917213 -0.620934784 -0.636201084
vn 0.705649376 -0.461125702 -0.537979603
vn 0.705649376 -0.461125702 -0.537979603
vn 0.705649376 -0.461125702 -0.537979603
vn -0.749673009 0.408755809 -0.520489216
vn -0.749673009 0.408755809 -0.520489216
vn -0.749673009 0.408755809 -0.520489216
vn -0.48405081 -0.569468379 -0.664380014
vn -0.48405081 -0.569468379 -0.664380014
vn -0.48405081 -0.569468379 -0.664380014
vn 0.867213786 0.335510612 -0.36793071
vn 0.867213786 0.335510612 -0.36793071
vn 0.867213786 0.335510612 -0.36793071
vn -0.128652602 0.264585704 0.955742121
vn -0.128652602 0.264585704 0.955742121
vn -0.128652602 0.264585704 0.955742121
vn -0.127167597 -0.302242011 0.944710612
vn -0.127167597 -0.302242011 0.944710612
vn -0.127167597 -0.302242011 0.944710612
g mesh1463920572
usemtl /mat/mat21
f 3/1/1 2/2/2 1/3/3
f 2/4/4 4/5/5 1/6/6
f 4/7/7 5/8/8 1/9/9
f 5/10/10 6/11/11 1/12/12
f 6/13/13 7/14/14 1/15/15
f 7/16/16 8/17/17 1/18/18
f 8/19/19 9/20/20 1/21/21
f 9/22/22 10/23/23 1/24/24
f 10/25/25 11/26/26 1/27/27
f 11/28/28 3/29/29 1/30/30
f 11/31/31 10/32/32 9/33/33 8/34/34 7/35/35 6/36/36 2/37/37
f 2/38/38 3/39/39 11/40/40
f 5/41/41 4/42/42 2/43/43
f 6/36/44 5/44/45 2/45/46
g mesh880859104
usemtl /mat/mat5
f 14/46/47 13/47/48 12/48/49
f 16/49/50 15/50/51 12/51/52
f 13/52/53 16/53/54 12/54/55
f 15/55/56 14/56/57 12/57/58
f 14/58/59 16/59/60 13/60/61
f 14/61/62 15/62/63 16/63/64
g mesh1121847136
usemtl /mat/mat5
f 19/64/65 18/65/66 17/66/67
f 19/67/68 21/68/69 20/69/70
f 19/70/71 20/71/72 18/72/73
f 19/73/74 17/74/75 21/75/76
f 18/76/77 20/77/78 17/78/79
f 20/79/80 21/80/81 17/81/82
g mesh806964330
usemtl /mat/mat21
f 24/82/83 23/83/84 22/84/85
f 27/85/86 26/86/87 25/87/88
f 26/88/89 23/89/90 24/90/91
f 25/91/92 26/92/93 24/93/94
f 27/94/95 25/95/96 22/96/97
f 24/97/98 22/98/99 25/99/100
f 26/100/101 27/101/102 23/102/103
f 22/103/104 23/104/105 27/105/106
g mesh1131677522
usemtl /mat/mat12
f 30/106/107 29/107/108 28/108/109
f 31/109/110 30/110/111 28/111/112
f 32/112/113 29/113/114 31/114/115
f 28/115/116 32/116/117 33/117/118
f 29/118/119 30/119/120 31/120/121
f 28/121/122 33/122/123 31/123/124
f 31/124/125 33/125/126 32/126/127
f 29/127/128 32/128/129 28/129/130
g mesh478504828
usemtl /mat/mat12
f 36/130/131 35/131/132 34/132/133
f 36/133/134 34/134/135 37/135/136
f 37/136/137 35/137/138 38/138/139
f 39/139/140 38/140/141 36/141/142
f 37/142/143 34/143/144 35/144/145
f 37/145/146 39/146/147 36/147/148
f 38/148/149 39/149/150 37/150/151
f 36/151/152 38/152/153 35/153/154
g mesh464688159
usemtl /mat/mat21
f 42/154/155 41/155/156 40/156/157
f 45/157/158 44/158/159 43/159/160
f 40/160/161 41/161/162 44/162/163
f 40/163/164 44/164/165 45/165/166
f 42/166/167 45/167/168 43/168/169
f 45/169/170 42/170/171 40/171/172
f 41/172/173 43/173/174 44/174/175
f 43/175/176 41/176/177 42/177/178
g mesh487296091
usemtl /mat/mat21
f 48/178/179 47/179/180 46/180/181
f 51/181/182 50/182/183 49/183/184
f 51/184/185 53/185/186 52/186/187
f 49/187/188 47/188/189 48/189/190
f 53/190/191 49/191/192 48/192/193 52/193/194
f 47/194/195 51/195/196 46/196/197
f 49/197/198 50/198/199 47/199/200
f 47/200/201 50/201/202 51/195/203
f 49/202/204 53/203/205 51/204/206
f 46/205/207 52/206/208 48/207/209
f 52/186/210 46/208/211 51/184/212
g mesh1125755829
usemtl /mat/mat24
f 56/209/213 55/210/214 54/211/215
f 54/212/216 58/213/217 57/214/218
f 57/215/219 58/216/220 55/217/221 56/218/222
f 56/219/223 59/220/224 57/221/225
f 54/222/226 59/223/227 56/224/228
f 57/225/229 59/226/230 54/227/231
f 58/228/232 54/229/233 55/230/234
g mesh1385402744
usemtl /mat/mat21
f 62/231/235 61/232/236 60/233/237
f 61/234/238 64/235/239 63/236/240
f 61/237/241 63/238/242 60/239/243
f 64/240/244 61/241/245 62/242/246
f 64/243/247 62/244/248 60/245/249
f 60/246/250 63/247/251 64/243/252
g mesh1597662914
usemtl /mat/mat25
f 67/248/253 66/249/254 65/250/255
f 66/251/256 68/252/257 65/253/258
f 68/254/259 69/255/260 67/256/261
f 68/257/262 70/258/263 65/259/264
f 65/260/265 70/261/266 67/262/267
f 67/256/268 70/263/269 68/254/270
f 66/264/271 67/265/272 69/266/273
f 66/267/274 69/268/275 68/269/276
g mesh956010490
usemtl /mat/mat23
f 73/270/277 72/271/278 71/272/279
f 75/273/280 73/274/281 74/275/282
f 72/276/283 75/277/284 71/278/285
f 74/279/286 73/280/287 71/281/288
f 75/282/289 74/283/290 71/284/291
f 73/285/292 75/286/293 72/287/294
g mesh1780649951
usemtl /mat/mat23
f 78/288/295 77/289/296 76/290/297
f 80/291/298 78/292/299 79/293/300
f 77/294/301 80/295/302 79/296/303
f 79/297/304 78/298/305 76/299/306
f 79/300/307 76/301/308 77/302/309
f 80/303/310 77/304/311 78/305/312
g mesh335070153
usemtl /mat/mat4
f 83/306/313 82/307/314 81/308/315
f 84/309/316 82/310/317 83/311/318
f 82/312/319 85/313/320 81/314/321
f 81/315/322 85/316/323 84/317/324
f 84/318/325 85/319/326 82/320/327
f 81/321/328 84/322/329 83/323/330
g mesh1080070685
usemtl /mat/mat4
f 88/324/331 87/325/332 86/326/333
f 90/327/334 89/328/335 86/329/336
f 87/330/337 90/331/338 86/332/339
f 89/333/340 88/334/341 86/335/342
f 88/336/343 89/337/344 90/338/345
f 90/339/346 87/340/347 88/341/348
